HIERARCHY
ROOT hip
{
  OFFSET -117.003 82.1945 -55.5146
  CHANNELS 6 Xposition Yposition Zposition Zrotation Xrotation Yrotation
  JOINT abdomen
  {
    OFFSET 0 20.6881 -0.73152
    CHANNELS 3 Zrotation Xrotation Yrotation
    JOINT chest
    {
      OFFSET 0 11.7043 -0.48768
      CHANNELS 3 Zrotation Xrotation Yrotation
      JOINT neck
      {
        OFFSET 0 22.1894 -2.19456
        CHANNELS 3 Zrotation Xrotation Yrotation
        JOINT head
        {
          OFFSET -0.24384 7.07133 1.2192
          CHANNELS 3 Zrotation Xrotation Yrotation
          JOINT leftEye
          {
            OFFSET 4.14528 8.04674 8.04672
            CHANNELS 3 Zrotation Xrotation Yrotation
            End Site
            {
              OFFSET 1 0 0
            }
          }
          JOINT rightEye
          {
            OFFSET -3.6576 8.04674 8.04672
            CHANNELS 3 Zrotation Xrotation Yrotation
            End Site
            {
              OFFSET 1 0 0
            }
          }
        }
      }
      JOINT rCollar
      {
        OFFSET -2.68224 19.2634 -4.8768
        CHANNELS 3 Zrotation Xrotation Yrotation
        JOINT rShldr
        {
          OFFSET -8.77824 -1.95073 1.46304
          CHANNELS 3 Zrotation Xrotation Yrotation
          JOINT rForeArm
          {
            OFFSET -28.1742 -1.7115 0.48768
            CHANNELS 3 Zrotation Xrotation Yrotation
            JOINT rHand
            {
              OFFSET -22.5879 0.773209 7.07136
              CHANNELS 3 Zrotation Xrotation Yrotation
              JOINT rThumb1
              {
                OFFSET -1.2192 -0.487915 3.41376
                CHANNELS 3 Zrotation Xrotation Yrotation
                JOINT rThumb2
                {
                  OFFSET -3.37035 -0.52449 3.41376
                  CHANNELS 3 Zrotation Xrotation Yrotation
                  End Site
                  {
                    OFFSET -1.78271 -1.18214 1.43049
                  }
                }
              }
              JOINT rIndex1
              {
                OFFSET -7.75947 0.938293 5.60832
                CHANNELS 3 Zrotation Xrotation Yrotation
                JOINT rIndex2
                {
                  OFFSET -2.54057 -0.884171 1.56538
                  CHANNELS 3 Zrotation Xrotation Yrotation
                  End Site
                  {
                    OFFSET -1.62519 -0.234802 1.16502
                  }
                }
              }
              JOINT rMid1
              {
                OFFSET -8.24714 1.18213 3.41376
                CHANNELS 3 Zrotation Xrotation Yrotation
                JOINT rMid2
                {
                  OFFSET -3.10165 -0.590103 1.0647
                  CHANNELS 3 Zrotation Xrotation Yrotation
                  End Site
                  {
                    OFFSET -2.48547 -0.328903 0.83742
                  }
                }
              }
              JOINT rRing1
              {
                OFFSET -8.82822 0.546677 1.51678
                CHANNELS 3 Zrotation Xrotation Yrotation
                JOINT rRing2
                {
                  OFFSET -2.60934 -0.819778 -0.0198488
                  CHANNELS 3 Zrotation Xrotation Yrotation
                  End Site
                  {
                    OFFSET -2.33842 -0.294052 0.168128
                  }
                }
              }
              JOINT rPinky1
              {
                OFFSET -8.27202 -0.0477905 -0.4584
                CHANNELS 3 Zrotation Xrotation Yrotation
                JOINT rPinky2
                {
                  OFFSET -1.82734 -0.647385 -0.700984
                  CHANNELS 3 Zrotation Xrotation Yrotation
                  End Site
                  {
                    OFFSET -1.69225 -0.51767 -0.607171
                  }
                }
              }
            }
          }
        }
      }
      JOINT lCollar
      {
        OFFSET 2.68224 19.2634 -4.8768
        CHANNELS 3 Zrotation Xrotation Yrotation
        JOINT lShldr
        {
          OFFSET 8.77824 -1.95073 1.46304
          CHANNELS 3 Zrotation Xrotation Yrotation
          JOINT lForeArm
          {
            OFFSET 28.1742 -1.7115 0.48768
            CHANNELS 3 Zrotation Xrotation Yrotation
            JOINT lHand
            {
              OFFSET 22.5879 0.773209 7.07136
              CHANNELS 3 Zrotation Xrotation Yrotation
              JOINT lThumb1
              {
                OFFSET 1.2192 -0.487915 3.41376
                CHANNELS 3 Zrotation Xrotation Yrotation
                JOINT lThumb2
                {
                  OFFSET 3.37035 -0.52449 3.41376
                  CHANNELS 3 Zrotation Xrotation Yrotation
                  End Site
                  {
                    OFFSET 1.78271 -1.18214 1.43049
                  }
                }
              }
              JOINT lIndex1
              {
                OFFSET 7.75947 0.938293 5.60832
                CHANNELS 3 Zrotation Xrotation Yrotation
                JOINT lIndex2
                {
                  OFFSET 2.54057 -0.884171 1.56538
                  CHANNELS 3 Zrotation Xrotation Yrotation
                  End Site
                  {
                    OFFSET 1.62519 -0.234802 1.16502
                  }
                }
              }
              JOINT lMid1
              {
                OFFSET 8.24714 1.18213 3.41376
                CHANNELS 3 Zrotation Xrotation Yrotation
                JOINT lMid2
                {
                  OFFSET 3.10165 -0.590103 1.0647
                  CHANNELS 3 Zrotation Xrotation Yrotation
                  End Site
                  {
                    OFFSET 2.48547 -0.328903 0.83742
                  }
                }
              }
              JOINT lRing1
              {
                OFFSET 8.82822 0.546677 1.51678
                CHANNELS 3 Zrotation Xrotation Yrotation
                JOINT lRing2
                {
                  OFFSET 2.60934 -0.819778 -0.0198488
                  CHANNELS 3 Zrotation Xrotation Yrotation
                  End Site
                  {
                    OFFSET 2.33842 -0.294052 0.168128
                  }
                }
              }
              JOINT lPinky1
              {
                OFFSET 8.27202 -0.0477905 -0.4584
                CHANNELS 3 Zrotation Xrotation Yrotation
                JOINT lPinky2
                {
                  OFFSET 1.82734 -0.647385 -0.700984
                  CHANNELS 3 Zrotation Xrotation Yrotation
                  End Site
                  {
                    OFFSET 1.69225 -0.51767 -0.607171
                  }
                }
              }
            }
          }
        }
      }
    }
  }
  JOINT rButtock
  {
    OFFSET -8.77824 4.35084 1.2192
    CHANNELS 3 Zrotation Xrotation Yrotation
    JOINT rThigh
    {
      OFFSET 0 -1.70687 -2.19456
      CHANNELS 3 Zrotation Xrotation Yrotation
      JOINT rShin
      {
        OFFSET 0 -36.8199 0.73152
        CHANNELS 3 Zrotation Xrotation Yrotation
        JOINT rFoot
        {
          OFFSET 0.73152 -45.1104 -5.12064
          CHANNELS 3 Zrotation Xrotation Yrotation
          End Site
          {
            OFFSET -1.1221 -3.69964 12.103
          }
        }
      }
    }
  }
  JOINT lButtock
  {
    OFFSET 8.77824 4.35084 1.2192
    CHANNELS 3 Zrotation Xrotation Yrotation
    JOINT lThigh
    {
      OFFSET 0 -1.70687 -2.19456
      CHANNELS 3 Zrotation Xrotation Yrotation
      JOINT lShin
      {
        OFFSET 0 -36.8199 0.73152
        CHANNELS 3 Zrotation Xrotation Yrotation
        JOINT lFoot
        {
          OFFSET -0.73152 -45.1104 -5.12064
          CHANNELS 3 Zrotation Xrotation Yrotation
          End Site
          {
            OFFSET 1.1221 -3.69964 12.103
          }
        }
      }
    }
  }
}
MOTION
Frames:	4
Frame Time:	0.00833333
63.3578 84.1181 3.58871 0.584929 -0.000670127 -0.0103467 -0.769347 -0.0038603 -0.0215834 -0.212073 -0.00504113 -0.036744 9.52688e-016 7.95139e-016 9.93923e-017 2.842e-015 9.54166e-015 3.80486e-016 -0 0 0 -0 0 0 5.45367e-016 3.10601e-018 1.98785e-016 1.18976e-014 2.48481e-016 2.38542e-015 1.77515e-013 -5.28767e-014 2.8625e-014 2.04219e-012 5.86166e-014 2.67167e-013 4.81312e-012 7.33796e-015 6.42472e-013 8.30602e-012 9.54166e-015 1.10127e-012 4.81814e-012 8.34896e-015 6.23389e-013 7.73091 5.47488 0.417314 4.81352e-012 7.05686e-015 6.39292e-013 2.90554 0.965183 0.102902 4.81941e-012 7.45443e-015 6.35316e-013 10.2786 0.731801 0.0259123 4.80781e-012 1.03368e-014 6.39292e-013 2.22167 -0.733487 -0.20892 4.48589e-016 3.10601e-018 -4.96962e-017 7.98516e-015 1.49089e-016 3.97569e-016 1.77117e-013 5.22804e-014 3.81667e-014 2.03656e-012 -6.30147e-014 2.54444e-013 4.80749e-012 -2.72662e-014 6.23389e-013 8.3096e-012 -4.45278e-014 1.08854e-012 4.80224e-012 -2.8625e-014 6.2975e-013 -7.73091 5.47488 -0.417314 4.8085e-012 -2.78299e-014 6.26569e-013 -2.90554 0.965183 -0.102902 4.80328e-012 -2.73329e-014 6.32135e-013 -10.2786 0.731801 -0.0259123 4.81397e-012 -2.34566e-014 6.26569e-013 -2.22167 -0.733487 0.20892 -2.03217e-016 0 -3.88251e-019 -0.0538946 -2.09674 -0.0177084 -0.0090403 -1.75492 -0.076044 -0.528951 3.85119 0.13978 2.03217e-016 0 3.88251e-019 -1.11485 -4.98914 0.0938575 0.00115132 3.48419 -0.00507214 0.536991 1.50463 -0.0922778 
55.6362 82.8552 -3.072 12.8585 18.6128 26.6869 -1.77539 -0.890951 -0.339334 -0.116444 2.10101 -0.135692 -0.408172 4.21786 0.274763 1.40305 -1.76779 0.332868 -0 0 0 -0 0 0 -6.83916e-016 -5.45007e-014 -2.41958e-015 20.8039 12.209 2.73675 -7.10861 -4.12981 9.95289 0.03618 4.22135 0.587471 9.20869e-011 -4.56263e-010 -2.4364e-010 1.5593e-010 -7.8923e-010 -4.21192e-010 9.20905e-011 -4.56265e-010 -2.43657e-010 7.73091 5.47488 0.417314 9.20871e-011 -4.56265e-010 -2.43642e-010 2.90554 0.965183 0.102902 9.20892e-011 -4.56265e-010 -2.43645e-010 10.2786 0.731801 0.0259123 9.20817e-011 -4.56262e-010 -2.4364e-010 2.22167 -0.733487 -0.20892 -7.55767e-016 -5.45008e-014 -2.68398e-015 -22.652 5.27758 -0.750485 8.73906 -5.6193 -11.3929 -0.149662 8.59974 -1.16003 -6.44097e-010 7.90296e-011 -2.24719e-010 -1.11581e-009 1.39805e-010 -3.7394e-010 -6.44101e-010 7.90288e-011 -2.24712e-010 -7.73091 5.47488 -0.417314 -6.44096e-010 7.90296e-011 -2.24718e-010 -2.90554 0.965183 -0.102902 -6.44101e-010 7.90303e-011 -2.24716e-010 -10.2786 0.731801 -0.0259123 -6.44091e-010 7.90347e-011 -2.24724e-010 -2.22167 -0.733487 0.20892 -2.03217e-016 0 -3.88251e-019 -3.44421 -4.85877 0.597705 0.0388516 9.27621 0.123284 -1.04642 -5.35791 -2.73117 2.03217e-016 0 3.88251e-019 1.65301 -7.83402 0.370477 -0.00780252 13.7168 -0.167577 1.58878 -5.45328 6.15393 
55.6363 82.8589 -3.08545 8.83125 24.7127 59.9356 -2.84879 -1.82733 -0.676766 -0.00956252 4.32612 -0.241017 -0.883189 8.67839 0.570077 2.90939 -3.63856 0.685667 -0 0 0 -0 0 0 -3.63671e-015 -8.63279e-014 -5.91384e-015 41.4115 25.0185 6.07259 -13.0828 -8.07853 20.6339 -0.0206836 8.68167 1.2191 1.90611e-010 -9.75326e-010 -5.17889e-010 3.22578e-010 -1.68706e-009 -8.95259e-010 1.90613e-010 -9.7533e-010 -5.17904e-010 7.73091 5.47488 0.417314 1.90611e-010 -9.75329e-010 -5.1789e-010 2.90554 0.965183 0.102902 1.90609e-010 -9.7533e-010 -5.17893e-010 10.2786 0.731801 0.0259123 1.90606e-010 -9.75326e-010 -5.17887e-010 2.22167 -0.733487 -0.20892 -3.68129e-015 -8.63279e-014 -6.19649e-015 -46.4457 10.8609 -1.56592 15.5761 -10.8121 -23.7672 0.0878139 17.6845 -2.47731 -1.38366e-009 1.70453e-010 -4.752e-010 -2.39681e-009 3.01445e-010 -7.90444e-010 -1.38366e-009 1.70453e-010 -4.75193e-010 -7.73091 5.47488 -0.417314 -1.38365e-009 1.70454e-010 -4.75202e-010 -2.90554 0.965183 -0.102902 -1.38366e-009 1.70455e-010 -4.75203e-010 -10.2786 0.731801 -0.0259123 -1.38365e-009 1.7046e-010 -4.75214e-010 -2.22167 -0.733487 0.20892 -2.03217e-016 0 -3.88251e-019 -6.96769 -7.77493 1.24899 0.00135494 20.9369 0.353946 -2.6243 -15.0257 -5.94372 2.03217e-016 0 3.88251e-019 4.60642 -10.84 0.66557 0.0517128 24.5339 -0.362314 4.37155 -12.5546 13.014 
55.6399 82.8576 -3.10969 3.55429 12.6873 83.1139 -3.81703 -2.66479 -0.975766 0.0967583 6.31303 -0.335348 -1.34844 12.6524 0.842517 4.271 -5.30266 1.00242 -0 0 0 -0 0 0 -3.14248e-015 -1.63508e-013 -7.65632e-015 58.216 36.2511 9.96823 -17.1742 -10.895 30.384 -0.156619 12.6587 1.80143 2.66635e-010 -1.3688e-009 -7.32204e-010 4.51178e-010 -2.36771e-009 -1.26578e-009 2.66635e-010 -1.36881e-009 -7.32219e-010 7.73091 5.47488 0.417314 2.66634e-010 -1.36881e-009 -7.32205e-010 2.90554 0.965183 0.102902 2.66629e-010 -1.36881e-009 -7.32207e-010 10.2786 0.731801 0.0259123 2.6663e-010 -1.36881e-009 -7.322e-010 2.22167 -0.733487 -0.20892 -3.16448e-015 -1.63508e-013 -7.95255e-015 -67.5276 15.8217 -2.33024 19.788 -14.1843 -35.237 0.692851 25.7545 -3.821 -1.94191e-009 2.37143e-010 -6.75404e-010 -3.36404e-009 4.19505e-010 -1.124e-009 -1.94191e-009 2.37144e-010 -6.75397e-010 -7.73091 5.47488 -0.417314 -1.9419e-009 2.37145e-010 -6.75409e-010 -2.90554 0.965183 -0.102902 -1.94191e-009 2.37146e-010 -6.75412e-010 -10.2786 0.731801 -0.0259123 -1.9419e-009 2.37151e-010 -6.75426e-010 -2.22167 -0.733487 0.20892 -2.03217e-016 0 -3.88251e-019 -10.0442 -10.3783 1.85238 -0.125234 31.3371 0.605342 -5.03589 -23.5212 -9.20749 2.03217e-016 0 3.88251e-019 7.27341 -13.5225 0.940118 0.180502 34.1807 -0.578132 8.35476 -18.4133 19.6038 
